<svg xmlns="http://www.w3.org/2000/svg" viewBox="0 20 940 560" width="940" height="560" class="ink-art"><style>.ink-defs{position:absolute;width:0;height:0;overflow:hidden;}.ink-art{display:block;width:100%;height:auto;overflow:visible;}.ink-art .ink{fill:var(--ink,#0e2233);}.ink-art .ink.soft{fill:var(--ink-soft,#173450);opacity:0.85;}.ink-art .hatch{fill:none;stroke:var(--ink,#0e2233);stroke-linecap:round;opacity:0.42;}.ink-art .hatch.soft{stroke:var(--ink-soft,#173450);opacity:0.28;}.ink-art .pencil{fill:none;stroke:var(--pencil,#a7b4c3);stroke-width:0.5;stroke-linecap:round;opacity:0.5;}.ink-art .wash-fill{fill:currentColor;opacity:0.34;}.ink-art .wash-edge{fill:none;stroke:currentColor;stroke-width:0.8;opacity:0.22;}.ink-art .wash.blue{color:var(--blue-grey,#a7b4c3);}.ink-art .wash.stone{color:var(--stone,#c9c0b1);}.ink-art .wash.brass{color:var(--brass-soft,#c9a874);}.ink-art .wash.navy{color:var(--navy-2,#173450);}.ink-art .wash.ivory{color:var(--ivory,#f5f2ea);}.ink-art .note{font-family:var(--hand,"Caveat"),cursive;fill:var(--ink-soft,#173450);}.ink-art .note.brass{fill:#8a6d42;}.ink-art .label{font-family:var(--serif,"Newsreader"),serif;font-style:italic;fill:var(--ink-soft,#173450);}.ink-art .leader{fill:none;stroke:var(--ink-soft,#173450);stroke-width:0.6;opacity:0.7;}.ink-art .cut{fill:var(--sky,#f5f2ea);}.ink-art .ik{fill:var(--navy,#0e2233);}.ink-art .ik.soft{fill:var(--navy-2,#173450);opacity:0.72;}.ink-art .ht,.ink-art .ln,.ink-art .pc{fill:none;stroke-linecap:round;}.ink-art .ht{stroke:var(--navy,#0e2233);stroke-width:0.5;opacity:0.55;}.ink-art .ht.far{stroke:var(--navy-2,#173450);opacity:0.32;}.ink-art .ln{stroke:var(--navy-2,#173450);stroke-width:0.6;opacity:0.7;}.ink-art .ln.warm{stroke:var(--brass-soft,#c9a874);stroke-width:1.4;opacity:0.85;}.ink-art .pc{stroke:var(--blue-grey,#a7b4c3);stroke-width:0.6;opacity:0.8;}.ink-art .w{fill:currentColor;fill-opacity:0.4;stroke:currentColor;stroke-width:0.8;stroke-opacity:0.3;stroke-linejoin:round;}.ink-art .w.blue{color:var(--blue-grey,#a7b4c3);}.ink-art .w.stone{color:var(--stone,#c9c0b1);}.ink-art .w.brass{color:var(--brass-soft,#c9a874);}.ink-art .w.navy{color:var(--navy-2,#173450);}.ink-art .far-layer .ik.soft{opacity:0.45;}.ink-art .route{fill:none;stroke:var(--brass,#a8875a);stroke-width:2.4;stroke-linecap:round;stroke-linejoin:round;}.ink-art .fig{fill:var(--navy,#0e2233);stroke:var(--sky,#f5f2ea);stroke-width:1.1;stroke-linejoin:round;paint-order:stroke;}.ink-art .fig-coat,.ink-art .fig-far{fill:var(--navy-2,#173450);}.ink-art .fig-pole{fill:none;stroke:var(--navy,#0e2233);stroke-width:0.9;stroke-linecap:round;}.ink-art .walker .pose,.ink-art .walker .frame-b{display:none;}.ink-art .walker[data-pose="climb"] .pose-climb{display:inline;}</style><g class="ride-art far-layer"><path d="M-30 150l39-9 51-13 46-16 44-16 38-16 32-10 25 7 23 7 28-12 34-10 43 15 47 15 51-8 49-8 40 12 40 12 49-8 51-8 44 14 46 14 53-6 57-6 72 12 58 14 0 874-1060 0zM-30 268l44-18 56-24 46-21 44-21 42-22 38-22 35-21 31-17 24-12 22-4 22 8 22 14 25 20 29 16 34 0 36-8 36-13 34-15 26-11 24-5 24 8 26 16 33 22 37 22 44 17 46 13 45 5 45 3 51 9 39 7 0 786-1060 0z" class="cut"></path><path d="M436 144l-5 3-5-1-5 0-6-2-7-5-6-1-7-6-7-5-8-8-7-5-8-8-8-7-4-11 4 1 3 1 4 1 3 1 3 2 4 2 3 2 4 2 3 3 3 2 4 2 3 2 4 2 3 3 3 2 4 3 3 3 4 3 3 2 3 3 4 3 3 2 4 2 3 3zM814 190l-5 5-5 5-5 1-6 3-5 1-5 4-6 0-6 0-6-1-6 0-7-4-6-3-6-2-9-11-6-3-7-4-8-9-6-3-9-9-7-7-8-9-8-6-8-8-8-8-9-8-6-20 4 1 3 1 4 1 3 1 3 2 4 1 3 2 4 2 3 2 3 2 4 3 3 2 4 2 3 2 3 2 4 2 3 2 4 2 3 2 3 3 4 2 3 2 4 3 3 2 3 2 4 3 3 2 4 2 3 2 3 2 4 2 3 2 4 2 3 2 3 1 4 2 3 1 4 2 3 1 3 2 4 1 3 1 4 1 3 2 3 1 4 1 3 1 4 1 3 2 3 1 4 1z" class="w blue" opacity="0.55"></path><path d="M331.9 64.3l2.8 9.6m1.4-8.7l2.6 9.2m1.6-8.3l5 17.5m-.8-16.6l3.6 12.4m.6-10.9l5.9 20.6m-1.7-18.9l3.7 12.7m.5-11l4.9 17.1m-.7-15.4l3 10.3m1.2-8.5l3.2 11.1m1-9.1l1.1 3.9m151.1-3.1l2.4 8.4m1.8-7.7l2.5 8.7m1.7-7.9l4.3 14.9m-.1-14.2l3.7 12.8m.5-11.6l4.5 15.5m-.3-14l3.1 10.8m1.1-9.2l2.7 9.4m152.1-7.8l2.7 9.4m1.5-8.6l3 10.5m1.2-9.8l4.8 16.7m-.6-15.9l4 13.9m.2-12.9l5.3 18.3m-1.1-16.7l3.6 12.4m.6-10.9l4.6 15.9m-.4-14.3l2.9 9.9m1.3-8.3l2.2 7.6m164.2-1.4l2.6 8.9m1.6-8.4l2.9 9.9m1.3-9.4l4.6 16.1m-.4-15.6l3.9 13.4m.3-12.9l4.8 16.7m-.6-16.2l3 10.3m1.2-9.7l3.5 12.2m.7-11.4l1.8 6.3" class="ht far"></path><path d="M353.4 88.2l4.5 15.5m-1.1-14.8l3.7 12.9m-.3-12.2l6.9 23.9m-3.5-22.5l5 17.3m-1.6-15.8l8.8 30.6m-5.4-28.9l6.1 21m-2.7-19l9.5 33m-6.1-31l7.2 24.9m-3.8-22.7l10.8 37.7m-7.4-35.5l7.4 25.7m-4-23.5l11 38.2m-7.6-36.1l8 27.8m-4.6-25.6l11.7 40.6m-8.3-38.3l8.7 30.3m-5.3-27.9l10.5 36.6m-7.1-34.2l8.1 28.2m-4.7-25.5l10.2 35.4m-6.8-32.6l7.2 25.1m-3.8-22.2l8.8 30.4m-5.4-27.7l5 17.4m-1.6-14.6l6.6 23m-3.2-20.3l4.5 15.8m-1.1-13.4l4.7 16.3m-1.3-14.1l2.7 9.2m.7-6.9l1.9 6.4m204.5-51.9l8.3 29m-4.9-28.3l7.7 26.6m-4.3-25.9l11 38.3m-7.6-37.1l9.6 33.3m-6.2-31.9l13.1 45.5m-9.7-44.1l11.6 40.2m-8.2-38.4l15.2 52.8m-11.8-50.9l11.4 39.8m-8-37.8l15.9 55.3m-12.5-53.3l11.6 40.2m-8.2-38.1l17.9 62.3m-14.5-60.2l13.1 45.5m-9.7-43.5l18.9 65.9m-15.5-63.8l14.8 51.4m-11.4-49.4l20.9 72.8m-17.5-70.7l14.6 50.8m-11.2-48.7l20.5 71.5m-17.1-69.4l14.6 50.7m-11.2-48.5l22.3 77.8m-18.9-75.4l15.5 53.9m-12.1-51.6l22.3 77.6m-18.9-75.3l17.2 59.7m-13.8-57.3l21.7 75.7m-18.3-73.4l17.4 60.5m-14-58.1l24 83.6m-20.6-81.3l17 59.1m-13.6-56.8l23.1 80.4m-19.7-78.3l15.9 55.5m-12.5-53.3l22.6 78.7m-19.2-76.6l16.5 57.3m-13.1-55.2l22.4 77.9m-19-76l17.7 61.4m-14.3-59.6l20.8 72.5m-17.4-70.7l13.3 46.3m-9.9-44.5l20 69.6m-16.6-67.9l15.2 52.7m-11.8-51.3l18.7 65.2m-15.3-63.7l14 48.6m-10.6-47.1l17.3 60.1m-13.9-58.7l13.6 47.3m-10.2-45.8l14.5 50.5m-11.1-49.2l10.3 35.9m-6.9-34.6l13 45.2m-9.6-44l9 31.4m-5.6-30.1l10.8 37.6m-7.4-36.3l7.9 27.6m-4.5-26.4l9.2 32m-5.8-30.9l5.4 18.8m-2-17.7l6.6 22.8m-3.2-21.6l3.6 12.5m-.2-11.4l3.4 11.7m0-10.7l1.3 4.5" class="ht"></path><path d="M-30 149.9l9.7-2.3 9.8-2.2 9.7-2.3 9.7-2.3 9.7-2.3 9.8-2.4 9.6-2.5 9.7-2.6 9.6-2.7 9.6-2.9 9.5-3.1 9.4-3.3 9.4-3.3 9.4-3.4 9.4-3.5 9.4-3.5 9.3-3.5 9.4-3.5 9.4-3.5 9.3-3.6 9.2-3.8 9.2-4 9.2-3.9 9.3-3.8 9.4-3.2 9.8-2.3 10.1-.3 9.7 2.6 9 4.4 9 4.2 9.5 2.2 9.7-1.1 9.3-3.5 8.9-4.6 8.9-4.5 9.1-4 7.8-2.6 0 .2-7.7 2.6-9.1 4-8.9 4.6-8.9 4.6-9.2 3.7-9.9 1.2-9.8-2.1-9.1-4.2-8.9-4.4-9.5-2.4-9.9.2-9.6 2.3-9.4 3.2-9.3 3.8-9.1 4-9.2 3.9-9.3 3.9-9.3 3.6-9.4 3.5-9.3 3.5-9.4 3.5-9.4 3.5-9.4 3.4-9.4 3.4-9.4 3.4-9.4 3.3-9.5 3.1-9.6 2.9-9.7 2.7-9.6 2.6-9.7 2.5-9.8 2.3-9.7 2.2-9.8 2.1-9.8 2.1-9.7 2.1-9.8 2.3zM343.3 64.3l9.4 3.5 9.3 3.7 9.2 4 9.1 4 9.2 3.9 9.4 3.4 9.6 2.7 9.8 1.8 9.9.1 9.9-.6 9.8-1.7 9.8-2 9.7-2.4 9.7-2.4 9.7-2.4 9.9-1.9 9.8-1.6 10.1-.6 9.9.8 9.9 1.8 9.5 3.2 9.3 3.9 9.1 3.9 9.2 4 9.4 3.2 9.8 2 9.8 1 10-.4 9.9-1.4 9.8-1.9 0 .2-9.8 1.9-9.9 1.4-10 .6-9.9-.9-9.8-1.9-9.6-3.1-9.2-3.9-9.2-4-9.2-3.8-9.4-3.1-9.8-1.9-9.8-.7-10 .5-9.8 1.6-9.8 1.9-9.7 2.4-9.7 2.4-9.7 2.4-9.8 2-9.9 1.8-10 .5-10-.1-9.9-1.8-9.7-2.7-9.4-3.4-9.2-3.9-9.1-4.2-9.1-4.2-9.2-3.9-9.3-3.5zM632.2 95.9l9.7-2.4 9.7-2.4 9.7-2.4 9.8-2.1 9.9-1.8 9.9-.8 10-.1 9.9 1.6 9.7 2.5 9.5 3.2 9.2 3.9 9.2 4 9.2 3.9 9.4 3.3 9.5 2.8 9.8 1.7 9.9.6 10 0 9.9-1.3 9.9-1.4 9.8-1.9 9.8-1.8 9.8-1.8 9.9-1.6 10-1.2 10-.6 10-.1 10 .5 9.9 1.1 10 1.3 9.8 1.8 9.8 1.8 9.8 2.1 9.8 2.1 9.8 2.1 9.7 2.3 9.7 2.4 9.7 2.4 9.7 2.4 9.8 2.3 7.2 1.6 0 .2-7.3-1.6-9.7-2.3-9.7-2.3-9.8-2.4-9.7-2.2-9.7-2.3-9.8-2-9.8-2.1-9.8-1.9-9.9-1.7-9.8-1.7-9.9-1.3-9.9-1.1-9.9-.6-10 .1-9.9.6-10 1.2-9.8 1.5-9.8 1.9-9.9 1.9-9.8 1.8-9.9 1.4-10 1.2-10 .1-10-.6-9.9-1.7-9.6-2.9-9.4-3.3-9.2-3.9-9.2-4-9.2-3.9-9.4-3.2-9.6-2.5-9.8-1.6-9.9.2-10 .7-9.8 1.6-9.8 2-9.7 2.2-9.7 2.3-9.8 2.4zM352.6 89l-.7 6-1 5.9-.9 5.9-.7 6-.7 5.9-.6 4.8-.1 0 .2-4.8.4-6 .7-6 .9-5.9 1-6 1.4-5.8zM640.5 95l-.7 6-.7 5.9-.9 6-.9 5.9-.8 5.9-.8 6-.8 5.9-.6 6-.6 6-.6 5.9-.6 6-.7 6-.3 2.4-.1 0 .2-2.5.4-6 .4-5.9.5-6 .6-6 .7-6 .7-5.9.8-6 .8-5.9.9-6 .9-5.9 1.1-5.9 1-5.9z" class="ik soft"></path><path d="M-30.1 267.8l9.2-3.9 9.2-3.9 9.2-3.9 9.2-4 9.2-3.9 9.2-3.9 9.2-3.9 9.2-3.9 9.2-4 9.2-3.9 9.2-3.9 9.2-4 9.1-4 9.1-4.2 9.1-4.2 9-4.3 9-4.3 9.1-4.3 9-4.3 9-4.3 9-4.4 8.8-4.6 8.9-4.7 8.7-4.8 8.7-4.9 8.7-4.9 8.8-4.9 8.7-4.9 8.7-4.9 8.7-4.9 8.7-4.9 8.6-5.1 8.6-5.1 8.6-5.1 8.7-5 8.7-4.9 8.9-4.7 9-4.3 9-4.4 9-4.2.2.3-9.1 4.2-9 4.4-8.9 4.5-8.8 4.7-8.7 5-8.5 5.2-8.5 5.2-8.6 5.3-8.5 5.1-8.7 5-8.7 4.9-8.7 4.9-8.7 5-8.7 4.9-8.7 4.9-8.7 5-8.8 4.8-8.8 4.7-8.9 4.6-9 4.4-9 4.3-9.1 4.3-9 4.3-9 4.4-9.1 4.2-9.1 4.2-9.1 4.1-9.1 4-9.2 4-9.2 4-9.2 3.9-9.2 3.9-9.2 3.9-9.2 3.9-9.3 3.8-9.3 3.7-9.2 3.7-9.3 3.7-9.3 3.8-9.3 3.8zM337.6 87.7l9.8-1.6 9.9.7 9.6 3.1 8.8 4.7 8.6 5.3 8.4 5.3 8.4 5.5 8 6.1 7.7 6.4 7.8 6.2 8.1 5.8 8.6 4.8 9.3 3.2 9.7 1.3 9.9.1 9.9-.9 9.9-1.5 9.7-2 9.7-2.3 9.7-2.5 9.5-2.9 9.4-3.4 9.3-3.6 9.2-3.9 9.1-4.1 9.2-4 9.2-3.9 9.3-3.6 9.3-3.8 9.1-4 9.4-3.7 9.7-2.5 10.1-.3 9.8 2.2 9.2 4 8.8 4.9 8.5 5.2 8.5 5.2 4.4 2.6-.1.2-4.4-2.5-8.6-5.2-8.6-5.1-8.8-4.8-9.1-3.8-9.7-2-9.9.4-9.5 2.6-9.2 3.7-9.1 4.1-9.3 3.8-9.3 3.7-9.2 3.9-9.1 4-9.2 4.1-9.2 3.9-9.3 3.7-9.4 3.4-9.6 2.9-9.7 2.6-9.7 2.3-9.9 2-9.9 1.5-10 .9-10.1-.1-10-1.4-9.5-3.3-8.8-4.9-8.2-5.8-7.8-6.3-7.7-6.4-8-6-8.3-5.5-8.4-5.4-8.3-5.5-8.7-4.9-9.3-3.3-9.8-.9-9.8 1.6zM700.4 122.1l8.3 5.6 8.3 5.6 8.3 5.6 8.4 5.4 8.5 5.2 8.7 4.9 8.8 4.5 9.2 4 9.2 3.9 9.2 3.7 9.4 3.5 9.4 3.3 9.5 3.1 9.6 2.7 9.7 2.6 9.7 2.2 9.8 2 9.8 1.6 9.9 1.1 9.9.9 10 .6 10 .5 10 .5 10 .6 10 .9 9.9 1.2 9.9 1.5 9.9 1.7 9.8 1.8 9.8 1.8 9.9 1.9 9.8 2 9.8 1.9 9.8 1.9 7.4 1.5 0 .2-7.5-1.3-9.8-1.9-9.8-1.8-9.9-1.8-9.8-1.8-9.8-1.7-9.9-1.6-9.9-1.6-9.9-1.4-9.9-1.1-9.9-1-10-.5-10-.5-10-.4-10-.7-9.9-.9-10-1.1-9.9-1.6-9.8-2-9.8-2.2-9.7-2.6-9.6-2.8-9.5-3-9.5-3.4-9.4-3.4-9.3-3.7-9.2-3.9-9.2-4.1-8.9-4.6-8.7-4.9-8.5-5.4-8.2-5.7-8.1-5.8-8.2-5.8-8.2-5.7z" class="ik"></path></g><g class="ride-art"><path d="M-30 424l18-3 22-4 20-3 20-3 19-3 21-4 27-7 28-9 28-8 27-8 25-9 25-9 25-9 25-9 25-9 25-9 25-9 25-9 27-8 28-8 28-9 27-7 21-4 19-3 20-4 20-3 20-4 20-4 21-2 22-2 22-2 22-2 21-2 22-2 23-1 24 0 23 0 23-1 24 0 23 0 22 1 21 2 22 1 22 2 24 1 19 1 0 380-1060 0z" class="cut"></path><path d="M1017.1 243.2l.2.9m-4-1.2l.4 1.7m-4.2-2l.2.8m-4-1l.5 1.9m-4.3-2.2l.3.9m-4-1.2l.6 2.5m-4.4-2.8l.3 1.4m-4.1-1.6l.7 2.8m-4.5-3.1l.5 1.8m-4.2-2l.7 2.9m-4.5-3.2l.4 1.5m-4.2-1.8l.9 3.4m-4.7-3.6l.6 2.2m-4.3-2.5l.9 3.6m-4.7-3.9l.5 2.2m-4.3-2.4l1 3.9m-4.8-4.2l.4 1.5m-4.1-1.8l.9 4m-4.7-4.2l.7 2.8m-4.5-3l1 4.1m-4.7-4.3l.7 2.8m-4.5-2.9l1.1 4.3m-4.8-4.5l.7 3m-4.5-3.2l1.2 4.9m-4.9-5l.7 3.1m-4.5-3.3l1.2 4.9m-4.9-5.1l.4 2m-4.2-2.2l1.3 5.4m-5-5.5l.7 3m-4.5-3.2l1.5 5.9m-5.3-6.1l.7 2.5m-4.4-2.6l1.4 5.7m-5.1-5.8l.5 2.3m-4.2-2.3l1.3 5.5m-5.1-5.5l.6 2.3m-4.3-2.4l1.6 6.2m-5.3-6.2l.7 2.7m-4.4-2.7l1.6 6.3m-5.3-6.4l.8 3.5m-4.6-3.5l1.7 6.7m-5.4-6.8l1.1 4.2m-4.8-4.2l1.6 6.5m-5.3-6.5l1 4.1m-4.7-4.2l1.6 6.8m-5.3-6.8l.7 3m-4.4-2.9l1.9 7.7m-5.6-7.6l1.1 4.4m-4.8-4.4l1.9 7.7m-5.6-7.6l.8 3.4m-4.5-3.4l2 8m-5.7-7.9l1.3 5.2m-5-5.2l2 8.1m-5.7-8l1.2 5m-4.9-5l2.2 8.8m-5.9-8.7l1.1 4.3m-4.8-4.3l2 7.9m-5.7-7.8l.8 3.3m-4.5-3.2l2.1 8.5m-5.8-8.4l1.5 6m-5.1-5.8l2 8.3m-5.7-8.2l.8 3.5m-4.5-3.3l2.4 9.4m-6.1-9.3l.9 3.4m-4.5-3.3l2.3 9.2m-6-9l1.5 6.2m-5.2-6.1l2.5 10m-6.2-9.8l1 3.8m-4.6-3.7l2.3 9.3m-6-9.2l1.1 4.6m-4.8-4.4l2.3 9.2m-5.9-9l1.7 6.9m-5.4-6.6l2.6 10.3m-6.2-10.1l1.5 6.4m-5.2-6.2l2.5 10m-6.1-9.7l1.3 5.4m-5-5.2l2.7 10.9m-6.3-10.6l1.2 5.1m-4.9-4.9l2.8 11m-6.4-10.8l1 4.4m-4.7-4.1l2.6 10.3m-6.2-10.1l1.1 4.6m-4.8-4.4l2.9 11.5m-6.5-11.1l1.3 5.3m-5-5l2.9 11.4m-6.5-11.1l1.4 5.6m-5-5.2l3 11.8m-6.6-11.5l1.4 5.8m-5.1-5.5l3 12m-6.6-11.6l1.6 6.4m-5.2-6.1l2.9 11.9m-6.5-11.5l1.1 4.6m-4.8-4.3l2.9 11.5m-6.5-11.2l1.8 7.1m-5.4-6.7l3.1 12.3m-6.7-11.9l1.7 6.9m-5.3-6.5l3 12.1m-6.6-11.6l1.7 6.8m-5.3-6.4l3.1 12.5m-6.7-12.1l1.9 7.9m-5.5-7.4l3.1 12.7m-6.7-12.3l1.8 7.4m-5.4-7l3 12.3m-6.6-11.8l1.7 7m-5.3-6.6l3.2 13.2m-6.8-12.7l1.7 6.9m-5.3-6.5l3 12m-6.6-11.4l2 7.8m-5.6-7.3l3.2 12.8m-6.8-12.3l2 7.7m-5.5-7.1l3.3 13.2m-6.9-12.7l2.1 8.6m-5.7-8l3.3 13.2m-6.9-12.7l1.4 5.3m-4.9-4.8l3.4 13.8m-7-13.2l1.7 6.7m-5.3-6.2l3.2 12.9m-6.8-12.3l2.2 8.7m-5.7-8.1l3.3 13.5m-6.9-12.9l2 7.9m-5.5-7.2l3.3 13.3m-6.9-12.6l2.1 8.3m-5.6-7.7l3.1 12.5m-6.7-11.8l2.3 9.1m-5.8-8.5l3.5 13.9m-7.1-13.2l1.6 6m-5.1-5.4l3.2 12.9m-6.7-12.2l1.7 6.8m-5.3-6.2l3.2 12.9m-6.7-12.2l1.8 7.5m-5.3-6.7l3.1 12.7m-6.7-12l1.7 6.8m-5.2-6l3.4 13.4m-6.9-12.6l2.1 8.4m-5.6-7.7l3.2 12.9m-6.7-12.1l1.6 6.5m-5.2-5.7l3.5 14m-7-13.3l1.8 7.1m-5.3-6.3l3.5 14m-7-13.2l2.1 8.6m-5.6-7.8l3.5 14.1m-7-13.2l1.5 5.9m-5-5l3.5 14m-7-13.1l1.9 7.6m-5.4-6.7l3.4 13.5m-6.9-12.6l1.5 5.8m-4.9-4.9l3.2 13m-6.7-12.1l1.6 6.5m-5.1-5.6l3.3 13.5m-6.8-12.6l1.7 6.9m-5.2-6l3.5 14.2m-6.9-13.2l2.2 8.8m-5.7-7.8l3.6 14.4m-7.1-13.4l2.2 8.5m-5.6-7.4l3.4 13.7m-6.9-12.7l1.4 5.4m-4.8-4.4l3.5 14.3m-7-13.3l1.7 6.9m-5.1-5.8l3.5 14m-7-13l2 8m-5.4-7l3.6 14.5m-7.1-13.5l2.1 8.5m-5.5-7.4l3.5 14.3m-7-13.2l1.9 7.4m-5.3-6.3l3.4 13.7m-6.8-12.6l2.2 8.9m-5.7-7.8l3.5 14.1m-6.9-13l1.9 7.7m-5.4-6.6l3.2 12.7m-6.6-11.6l2.2 8.9m-5.6-7.8l3.5 14m-7-12.9l1.6 6.2m-5-5.1l3.5 14.1m-6.9-12.9l2.1 8.4m-5.5-7.2l3.3 13.3m-6.7-12.1l1.3 5.5m-4.8-4.4l3.4 13.6m-6.8-12.4l1.5 6.1m-4.9-4.9l3 12.1m-6.4-10.9l1.9 7.8m-5.3-6.7l3.2 13.2m-6.6-12l1.5 6.2m-4.9-5l3.3 13.3m-6.7-12l1.3 5.3m-4.7-4.1l2.9 11.9m-6.3-10.6l1.8 7.2m-5.2-6l2.9 11.9m-6.3-10.6l1.2 5.1m-4.6-3.8l3 12.3m-6.4-11.1l1.8 7.3m-5.2-6l2.9 11.6m-6.3-10.4l1.9 7.9m-5.3-6.6l2.8 11.3m-6.2-10.1l1.8 7.3m-5.2-6l3.1 12.5m-6.5-11.3l1.5 6m-4.9-4.7l2.9 11.5m-6.3-10.3l1.7 6.8m-5.1-5.5l2.8 11.3m-6.2-10.1l1.2 4.9m-4.6-3.6l2.7 10.9m-6.1-9.7l1.7 7m-5.1-5.7l2.8 11.2m-6.2-10l1.3 5.3m-4.7-4l2.7 11m-6.1-9.8l1.8 7.1m-5.2-5.8l2.7 10.7m-6.1-9.5l1.3 5.4m-4.7-4.1l2.7 10.8m-6.1-9.5l1.3 5.1m-4.7-3.9l2.8 11.1m-6.2-9.8l1.4 5.5m-4.8-4.3l2.7 10.7m-6.1-9.4l1.5 6m-4.9-4.8l2.5 10.2m-5.9-8.9l1.4 5.6m-4.8-4.4l2.6 10.4m-6-9.1l1.3 5.1m-4.7-3.9l2.6 10.2m-6-8.9l1.2 4.6m-4.6-3.4l2.4 9.6m-5.8-8.4l1.6 6.4m-5-5.2l2.3 9.3m-5.7-8.1l1.3 5.1m-4.7-4l2.4 9.7m-5.9-8.5l1.5 6m-4.9-4.8l2.3 9.1m-5.7-7.9l1.1 4.2m-4.5-3.1l2.2 8.9m-5.6-7.7l.9 3.6m-4.3-2.4l2.1 8.6m-5.6-7.5l.8 3.2m-4.2-2.1l2.2 8.8m-5.6-7.7l1.1 4.6m-4.6-3.5l2 8.1m-5.4-7l1.4 5.5m-4.9-4.4l2 7.8m-5.4-6.7l1.2 4.6m-4.6-3.5l1.8 7.3m-5.3-6.2l.9 3.6m-4.3-2.5l1.8 7.1m-5.2-6l1.1 4.5m-4.6-3.5l1.8 7.1m-5.2-6.1l.9 3.9m-4.4-2.8l1.8 7.3m-5.3-6.3l1.1 4.4m-4.5-3.4l1.7 6.7m-5.2-5.6l.9 3.2m-4.3-2.2l1.7 6.8m-5.2-5.8l1 3.9m-4.4-2.8l1.6 6.6m-5.1-5.6l.8 3.2m-4.3-2.3l1.6 6.1m-5-5.2l.9 3.7m-4.4-2.8l1.4 5.7m-4.9-4.8l.6 2.4m-4.1-1.6l1.4 5.7m-4.9-4.8l.5 2.2m-4-1.3l1.3 5.3m-4.8-4.4l.7 2.9m-4.2-2l1.3 5m-4.8-4.1l.8 3.1m-4.2-2.3l1.2 4.9m-4.8-4.2l.8 3.1m-4.3-2.4l1.2 5.1m-4.8-4.4l.7 2.8m-4.2-2.2l1.1 4.6m-4.7-3.9l.7 2.8m-4.2-2.1l1.1 4.2m-4.6-3.5l.5 2.2m-4.1-1.6l1 3.8m-4.5-3.1l.6 2.5m-4.2-1.8l1 3.8m-4.5-3.2l.6 2.5m-4.2-1.8l.9 3.6m-4.4-3l.4 1.8m-4-1.2l.9 3.5m-4.5-3l.5 2m-4-1.4l.7 2.9m-4.3-2.4l.3 1.3m-3.9-.7l.8 3m-4.4-2.5l.4 1.5m-3.9-.9l.6 2.5m-4.2-2l.4 1.6m-4-1l.6 2.3m-4.1-1.8l.2 1.1m-3.8-.5l.5 2m-4.1-1.4l.3 1m-3.9-.5l.5 1.8m-4-1.3l.1.7m-3.7-.1l.3 1.3" class="ht"></path><path d="M51.7 331.7l-1.6.8m2.2-.8l1.6.8m-2.2 4l-2.7 1.3m3.3-1.3l2.7 1.3m-3.3 3.5l-3.7 1.8m4.3-1.8l3.7 1.8m-4.3 3l-5.1 2.4m5.7-2.4l5.1 2.4m-5.1-.4l4 2.3m-4.6.5l-6.4 3m7-3l6.4 3m-7 1.8l-7.8 3.6m8.4-3.6l7.8 3.6m-7.8-1.6l6.2 3.4m-6.8-.6l-8.5 3.9m9.1-3.9l8.5 3.9m-9.1.9l-9.8 4.6m10.4-4.6l9.8 4.6m-9.8-2.6l7.8 4.3m-8.4-1.5l-11.2 5.2m11.8-5.2l11.2 5.2m-11.8-.4l-11.8 5.4m12.4-5.4l11.8 5.4m-11.8-3.4l9.4 5.1m-10-2.3l-13.4 6.2m14-6.2l13.4 6.2m-14-1.4l-14.5 6.7m15.1-6.7l14.5 6.7m-14.5-4.7l11.5 6.2m-12.1-3.4l-15.7 7.2m16.3-7.2l15.7 7.2m-16.3-2.4l-16 7.3m16.6-7.3l16 7.3m-16-5.3l12.7 6.8m-13.3-4l-18.1 8.3m18.7-8.3l18.1 8.3m-18.7-3.5l-19.5 8.9m20.1-8.9l19.5 8.9m-19.5-6.9l15.6 8.3m-16.2-5.5l-21.4 9.7m22-9.7l21.4 9.7m-22-4.9l-20.7 9.4m21.3-9.4l20.7 9.4m-20.7-7.4l16.5 8.8M103.7 359.3l-1.6.9m2.2-.9l1.6.9m-2.2 4l-2.9 1.4m3.5-1.4l2.9 1.4m-3.5 3.4l-3.8 1.8m4.4-1.8l3.8 1.8m-4.4 3.1l-5.1 2.4m5.7-2.4l5.1 2.4m-5.1-.4l4.1 2.2m-4.7.6l-6.5 3.1m7.1-3.1l6.5 3.1m-7.1 1.8l-7.7 3.5m8.3-3.5l7.7 3.5m-7.7-1.5l6.1 3.3m-6.7-.5l-8.5 4m9.1-4l8.5 4m-9.1.8l-9.8 4.6m10.4-4.6l9.8 4.6m-9.8-2.6l7.8 4.3m-8.4-1.4l-10.8 5m11.4-5l10.8 5m-11.4-.2l-12.8 5.9m13.4-5.9l12.8 5.9m-12.8-3.9l10.2 5.5m-10.8-2.6l-13.2 6.1m13.8-6.1l13.2 6.1m-13.8-1.3l-13.8 6.4m14.4-6.4l13.8 6.4m-13.8-4.4l11 5.9m-11.6-3l-15 6.9m15.6-6.9l15 6.9M149.7 377.8l-1.6.8m2.2-.8l1.6.8m-2.2 3.8l-2.8 1.4m3.4-1.4l2.8 1.4m-3.4 3.2l-3.5 1.7m4.1-1.7l3.5 1.7m-4.1 2.9l-4.6 2.2m5.2-2.2l4.6 2.2m-4.6-.2l3.6 2m-4.2.6l-6 2.8m6.6-2.8l6 2.8m-6.6 1.8l-6.9 3.2m7.5-3.2l6.9 3.2m-6.9-1.2l5.5 3m-6.1-.4l-8.2 3.8m8.8-3.8l8.2 3.8m-8.8.8l-9.6 4.4m10.2-4.4l9.6 4.4m-9.6-2.4l7.6 4.1m-8.2-1.5l-10.6 4.9m11.2-4.9l10.6 4.9M789.7 154.8l-1.6.9m2.2-.9l1.6.9m-2.2 3.8l-2.6 1.3m3.2-1.3l2.6 1.3m-3.2 3.4l-3.9 1.9m4.5-1.9l3.9 1.9m-4.5 2.8l-4.7 2.2m5.3-2.2l4.7 2.2m-4.7-.2l3.7 2.1m-4.3.6l-5.9 2.8m6.5-2.8l5.9 2.8m-6.5 1.8l-7.4 3.5m8-3.5l7.4 3.5m-7.4-1.5l5.9 3.3m-6.5-.6l-8.5 4m9.1-4l8.5 4m-9.1.7l-9.2 4.3m9.8-4.3l9.2 4.3m-9.2-2.3l7.3 4m-7.9-1.3l-11 5.1m11.6-5.1l11 5.1m-11.6-.4l-11.4 5.2m12-5.2l11.4 5.2m-11.4-3.2l9 4.9m-9.6-2.3l-12.4 5.8m13-5.8l12.4 5.8m-13-1.1l-14.9 6.9m15.5-6.9l14.9 6.9m-14.9-4.9l11.9 6.4m-12.5-3.7l-15 6.9m15.6-6.9l15 6.9m-15.6-2.2l-15.6 7.2m16.2-7.2l15.6 7.2m-15.6-5.2l12.5 6.7m-13.1-4l-17.3 7.9m17.9-7.9l17.3 7.9M829.7 140.3l-1.6.9m2.2-.9l1.6.9m-2.2 3.9l-2.7 1.3m3.3-1.3l2.7 1.3m-3.3 3.4l-3.9 1.9m4.5-1.9l3.9 1.9m-4.5 2.8l-4.8 2.3m5.4-2.3l4.8 2.3m-4.8-.3l3.8 2.2m-4.4.6l-6.2 2.9m6.8-2.9l6.2 2.9m-6.8 1.8l-7.6 3.6m8.2-3.6l7.6 3.6m-7.6-1.6l6 3.3m-6.6-.6l-8.8 4.1m9.4-4.1l8.8 4.1m-9.4.7l-9.4 4.3m10-4.3l9.4 4.3m-9.4-2.3l7.5 4.1m-8.1-1.4l-10.8 5m11.4-5l10.8 5m-11.4-.3l-12.3 5.7m12.9-5.7l12.3 5.7m-12.3-3.7l9.8 5.3m-10.4-2.5l-13 6m13.6-6l13 6m-13.6-1.3l-13.4 6.2m14-6.2l13.4 6.2m-13.4-4.2l10.6 5.8m-11.2-3l-16.1 7.3m16.7-7.3l16.1 7.3m-16.7-2.6l-17.1 7.8m17.7-7.8l17.1 7.8m-17.1-5.8l13.6 7.3m-14.2-4.6l-18.6 8.5m19.2-8.5l18.6 8.5m-19.2-3.7l-17.8 8.1m18.4-8.1l17.8 8.1m-17.8-6.1l14.2 7.6m-14.8-4.9l-20.7 9.4m21.3-9.4l20.7 9.4m-21.3-4.7l-21 9.6m21.6-9.6l21 9.6m-21-7.6l16.7 9m-17.3-6.2l-21.2 9.7m21.8-9.7l21.2 9.7M871.7 179.7l-1.5.8m2.1-.8l1.5.8m-2.1 3.8l-2.7 1.3m3.3-1.3l2.7 1.3m-3.3 3.4l-3.8 1.8m4.4-1.8l3.8 1.8m-4.4 2.8l-5 2.4m5.6-2.4l5 2.4m-5-.4l3.9 2.2m-4.5.5l-6.1 2.8m6.7-2.8l6.1 2.8m-6.7 1.8l-7.3 3.4m7.9-3.4l7.3 3.4m-7.3-1.4l5.8 3.2m-6.4-.5l-8.3 3.8m8.9-3.8l8.3 3.8m-8.9.8l-9.1 4.2m9.7-4.2l9.1 4.2m-9.1-2.2l7.2 4m-7.8-1.3l-11.1 5.1m11.7-5.1l11.1 5.1m-11.7-.5l-11.2 5.2m11.8-5.2l11.2 5.2m-11.2-3.2l8.9 4.8m-9.5-2.1l-12.5 5.7m13.1-5.7l12.5 5.7m-13.1-1.1l-13.2 6.1m13.8-6.1l13.2 6.1m-13.2-4.1l10.5 5.7M909.7 153.9l-1.5.8m2.1-.8l1.5.8m-2.1 3.9l-2.6 1.3m3.2-1.3l2.6 1.3m-3.2 3.5l-3.7 1.8m4.3-1.8l3.7 1.8m-4.3 2.9l-5.2 2.5m5.8-2.5l5.2 2.5m-5.2-.5l4.1 2.3m-4.7.4l-6 2.9m6.6-2.9l6 2.9m-6.6 1.8l-7.6 3.6m8.2-3.6l7.6 3.6m-7.6-1.6l6 3.4m-6.6-.6l-8.6 4m9.2-4l8.6 4m-9.2.7l-10.2 4.7m10.8-4.7l10.2 4.7m-10.2-2.7l8.1 4.4m-8.7-1.7l-10.7 5m11.3-5l10.7 5m-11.3-.3l-11.8 5.5m12.4-5.5l11.8 5.5m-11.8-3.5l9.4 5.1m-10-2.3l-12.7 5.8m13.3-5.8l12.7 5.8m-13.3-1.1l-14.7 6.7m15.3-6.7l14.7 6.7m-14.7-4.7l11.7 6.3m-12.3-3.6l-15.8 7.3m16.4-7.3l15.8 7.3m-16.4-2.6l-16.3 7.5m16.9-7.5l16.3 7.5m-16.3-5.5l13 7m-13.6-4.2l-18.2 8.3m18.8-8.3l18.2 8.3m-18.8-3.6l-18.7 8.6m19.3-8.6l18.7 8.6m-18.7-6.6l14.9 8" class="ln"></path><path d="M-30 423.8l9.8-1.7 9.9-1.7 9.8-1.7 9.9-1.7 9.8-1.8 9.9-1.7 9.8-1.6 9.9-1.6 9.9-1.5 9.9-1.4 9.9-1.7 9.7-1.9 9.7-2.4 9.6-2.7 9.6-2.8 9.6-2.8 9.6-2.8 9.6-2.9 9.6-2.8 9.6-2.9 9.6-2.8 9.5-2.9 9.6-3 9.5-3 9.5-3.2 9.4-3.2 9.4-3.4 9.5-3.3 9.4-3.3 9.4-3.3 9.5-3.4 9.4-3.4 9.4-3.3 9.4-3.4 9.4-3.5.1.3-9.4 3.4-9.4 3.5-9.4 3.5-9.3 3.5-9.4 3.6-9.3 3.5-9.4 3.4-9.4 3.4-9.4 3.5-9.5 3.3-9.4 3.2-9.5 3.1-9.6 3-9.6 2.9-9.6 2.8-9.6 2.8-9.6 2.8-9.6 2.8-9.5 2.9-9.6 2.9-9.6 2.8-9.7 2.6-9.8 2.3-9.8 2-9.9 1.6-9.9 1.4-9.9 1.5-9.8 1.7-9.9 1.7-9.8 1.6-9.9 1.6-9.9 1.4-9.9 1.5-9.9 1.4-9.9 1.6zM316.7 329.8l9.3-3.5 9.4-3.5 9.3-3.6 9.4-3.6 9.3-3.5 9.4-3.4 9.4-3.5 9.4-3.3 9.5-3.2 9.6-2.9 9.6-2.8 9.7-2.7 9.6-2.7 9.6-2.7 9.6-2.8 9.6-2.8 9.6-2.8 9.6-2.9 9.6-2.8 9.7-2.6 9.7-2.3 9.8-1.9 9.9-1.6 9.9-1.5 9.9-1.7 9.8-1.8 9.8-1.7 9.9-1.7 9.8-1.8 9.8-1.9 9.9-1.9 9.8-1.7 5.1-.8 0 .3-5 .8-9.9 1.8-9.7 2-9.8 2.1-9.8 1.9-9.9 1.9-9.8 1.9-9.8 1.8-9.9 1.8-9.9 1.5-9.8 1.6-9.8 1.9-9.7 2.4-9.6 2.6-9.6 2.7-9.6 2.9-9.6 2.8-9.6 2.8-9.6 2.8-9.6 2.7-9.7 2.7-9.6 2.8-9.6 2.8-9.5 3-9.5 3.1-9.4 3.3-9.4 3.4-9.4 3.5-9.4 3.3-9.5 3.3-9.4 3.3-9.4 3.3-9.4 3.4zM630 245.8l9.9-1.3 9.9-1 10-1 10-1 9.9-1 9.9-1.1 10-1 10-.9 9.9-.9 10-.9 9.9-.9 10-.9 10-.6 10-.4 10-.1 10 0 10-.1 10-.1 10-.2 10-.2 10-.2 10-.2 10-.2 10-.1 10-.2 10 0 10 .1 10 .3 10 .5 10 .7 10 .8 10 .7 9.9.7 10 .8 10 .7 9.9.7 10 .7 10 .7 10 .7 10 .5-.1.3-9.9-.5-10-.6-10-.6-10-.6-10-.6-10-.6-9.9-.6-10-.6-10-.6-10-.6-10-.6-9.9-.5-10-.3-10-.1-10 0-10 .2-10 .1-10 .2-10 .2-10 .2-10 .3-10 .2-10 .1-10 0-10 0-10 .1-9.9.3-10 .7-9.9.8-10 .9-10 .9-9.9 1-10 1-9.9.9-10 .9-9.9.9-10 .7-10 .7-10 .8-9.9 1.2zM52 425.3l-.1-5-.1-5-.2-5 0-5 0-5 0-5 0-5 0-5-.1-5 .1-5 0-5 0-5 0-5 0-5 0-5 .1-5 0-5 .1-5 .1-5 0-2 .1 0 0 2 .1 5 .1 5 .1 5 0 5 .1 5 0 5 0 5 0 5 0 5 0 5 0 5 0 5 0 5 0 5 0 5 0 5-.1 5-.1 5-.1 5zM104 426.9l-.1-5-.2-5 0-5-.1-5 0-5 0-5 0-5 0-5 0-5-.1-5 .1-5 .1-5 .1-5 0-5 .1 0 .1 5 .1 5 .1 5 .1 5 0 5 .1 5 0 5 0 5 0 5 0 5 0 5 0 5-.1 5-.2 5zM149.9 421.5l-.2-5-.2-5 0-5 .1-5 0-5 0-5 0-5 .1-5 .2-5 .1-2 .1 0 .1 2 .1 5 .1 5 0 5 0 5 0 5-.1 5 0 5-.1 5-.2 5zM790 230.6l-.1-5-.2-5 0-5 0-5 0-5 0-5 0-5 0-5 0-5 0-5 0-5 0-5 .1-5 .1-5 .1-5 0-4 .1 0 0 4 .1 5 .1 5 .1 5 0 5 0 5 0 5 0 5 0 5 0 5 0 5 0 5 0 5 0 5-.2 5-.1 5zM829.9 238l0-5-.2-5-.1-5 0-5 0-5 0-5 0-5 0-5 0-5 0-5 0-5 0-5-.1-5 0-5 0-5 .1-5 .1-5 .1-5 0-5 0-5 .1 0 .1 5 0 5 .1 5 .2 5 0 5 .1 5 0 5 0 5 0 5 0 5 0 5 0 5 0 5 0 5 0 5 0 5 0 5-.1 5-.2 5 0 5zM871.9 239.4l-.1-5-.2-5 0-5-.1-5 0-5 0-5 0-5 0-5 .1-5 .1-5 .1-5 .2-5 0-3 .2 0 0 3 .1 5 .1 5 0 5-.1 5 0 5 0 5 0 5 0 5 .1 5 0 5-.2 5-.1 5zM909.8 235.6l0-5-.2-5-.1-5 0-5 .1-5 0-5 0-5-.1-5 0-5 0-5 0-5 .1-5 0-5 .1-5 .2-5 .1-5 0-5 .1 0 0 5 .1 5 .1 5 .1 5 0 5 0 5 0 5-.1 5 0 5 0 5 0 5 0 5 0 5 0 5-.1 5-.1 5-.1 5z" class="ik"></path><path d="M-30,424C-10,420.7 51.7,412.7 90,404C128.3,395.3 165,383.3 200,372C235,360.7 266.7,348 300,336C333.3,324 365,311.3 400,300C435,288.7 471.7,277 510,268C548.3,259 588.3,251.7 630,246C671.7,240.3 715,236.3 760,234C805,231.7 855,231 900,232C945,233 1008.3,238.7 1030,240" class="route"></path></g><g class="walker" data-pose="climb" data-step="0" transform="translate(318.0 330.0) scale(2)"><g class="pose pose-climb"><g class="frame-a"><path d="M3.3-51.2l.6.3.3 1.2-.3 2.3-.6 3-.8 3.1-1.1 3.3-1.2 3.4-.9 2.5-.4 1.4-.2.5-.2.4-.4.3-.5.2-.3 0-.4-.2-.2-.4-.2-.5.1-.4.1-.6.4-1.3.7-2.6 1-3.4.7-3.2.4-3.2.2-3 .4-2.2.6-1 .7-.2.8.2zM1.6-33.9l1 .6.3 2-.9 4.1-1.6 5.5-1.7 5.5-1.7 5.2-1.7 5.2-1.5 3.6-.8 1.3-.5-.1-.4-.4-.6.1-.5-.2 0-1.5.8-3.8 1.4-5.2 1.3-5.4.9-5.5.8-5.6.9-4.2 1.1-1.6 1.2-.1 1.1.4zM-6.6-3.9l2.1 2.9.3 2.5-1.2.3-4.7-3.5 2.3-3.1z" class="fig fig-far"></path><path d="M-.2-34.4l1.2-.3 1.6 1.1 2.2 3.1 2.5 4.5 1.8 4.8.6 5.4-.1 5.9-.3 4.2-.4 1.6-.5 0-.5-.3-.6.3-.5 0-.5-1.4-.3-4-.2-5.5-.9-5-2.4-4-3-3.6-2.1-2.8-.2-1.8.7-1 1-.6zM7.6-7.2l3.5.7 2 1.6-.7 1.1-5.9.5-.4-3.7z" class="fig"></path><path d="M1.6-25.3l-4-.6-2.6-1.5-.3-2.8 1.1-3.7.9-3.6.2-3.2.1-3.1.3-2.8.4-2.6.5-2.3.7-1.6 1-.7 1.2-.1 1.1 0 1.3.2 1.2.3 1 .6.7.9.3 1.1.2 1.4-.1 1.7-.3 2-.4 2.2-.4 2.5-.5 2.7-.4 2.9.1 3.4.3 3.6-.7 2.4zM1.8-50.6l-.5-.4-.2-.7.1-1.5.3-1.8.4-1.4.5-.6.5-.2.5 0 .4.1.4.4.3.7 0 1.5-.2 1.8-.3 1.4-.4.6-.6.3-.6-.1zM7-59.3l-.1.6-.2.6-.2.6-.3.5-.3.5-.4.4-.4.3-.5.2-.5.2-.5 0-.5 0-.5-.1-.4-.2-.4-.4-.4-.3-.3-.5-.3-.5-.2-.6-.1-.6-.1-.6 0-.7.1-.6.2-.6.2-.6.3-.5.3-.5.4-.4.4-.3.5-.2.5-.2.5 0 .5 0 .5.1.4.2.4.4.4.3.3.5.3.5.2.6.1.6.1.6z" class="fig fig-coat"></path><path d="M2.8-51.5l.7.2.7.9.2 2.2.1 3 .8 2.3 2.2 1.2 2.8.4 2.4.4 1.2.3.6.2.5.2.3.4.2.4 0 .4-.2.3-.3.3-.5.1-.4 0-.6-.1-1.4-.3-2.7-.3-3.5-.5-2.8-1.2-1.5-2.8-.8-3.4-.3-2.7.2-1.2.6-.4.7-.1z" class="fig fig-coat"></path><path d="M14-42.4l-1.6 38.2M10.9-6.9l3.2.2" class="fig-pole"></path></g><g class="frame-b"><path d="M3.3-51.2l.6.3.3 1.2-.3 2.3-.6 3-.8 3.1-1.1 3.3-1.2 3.4-.9 2.5-.4 1.4-.2.5-.2.4-.4.3-.5.2-.3 0-.4-.2-.2-.4-.2-.5.1-.4.1-.6.4-1.3.7-2.6 1-3.4.7-3.2.4-3.2.2-3 .4-2.2.6-1 .7-.2.7.2zM1.2-34.8l1.2.4.6 1.9-.1 4.4-.6 6-.7 5.7-.9 5.3-1.1 5.1-.9 3.6-.7 1.4-.5-.1-.5-.3-.5.2-.6-.1-.2-1.5.4-3.7.6-5 .5-5.3-.1-5.7-.2-5.9.1-4.3.8-1.9 1.1-.3 1.2.2zM-2.1-4l2.6 2.4.8 2.4-1.1.5-5.3-2.6 1.7-3.4z" class="fig fig-far"></path><path d="M.1-35l1.2-.2 1.4 1.3 1.9 3.5 2 4.9 1.4 5.1.1 5.4-.6 5.6-.6 4-.5 1.5-.5 0-.5-.3-.6.2-.5 0-.4-1.4.1-3.9.1-5.3-.5-5-1.9-4.4-2.7-4.1-1.7-3.2-.1-1.9.9-.9 1-.4zM5.4-7l3.4 1 1.8 1.8-.8 1-5.9 0 0-3.8z" class="fig"></path><path d="M1.5-25.9l-3.9-.6-2.7-1.5-.2-2.8 1.1-3.7.9-3.6.2-3 .1-2.9.2-2.7.5-2.5.5-2.3.7-1.6 1-.7 1.2-.2 1.1.1 1.3.2 1.2.3 1 .6.7.9.3 1.1.2 1.4-.1 1.7-.3 2.1-.4 2.1-.4 2.3-.5 2.5-.4 2.7.1 3.4.3 3.6-.8 2.4zM1.8-50.6l-.5-.4-.3-.7.2-1.5.3-1.8.4-1.4.5-.6.5-.2.5 0 .4.1.4.4.3.7 0 1.5-.2 1.8-.3 1.4-.5.6-.6.3-.5-.1zM7-59.3l-.1.6-.2.6-.2.6-.3.5-.3.5-.4.4-.4.3-.5.2-.5.2-.5 0-.5 0-.5-.1-.4-.3-.4-.3-.4-.4-.3-.4-.3-.5-.2-.6-.1-.6-.1-.6 0-.7.1-.6.2-.6.2-.6.3-.5.3-.5.4-.4.4-.3.5-.2.5-.2.5 0 .5 0 .5.1.4.3.4.3.4.4.3.4.3.5.2.6.1.6.1.6z" class="fig fig-coat"></path><path d="M2.8-51.5l.7.2.7.9.2 2.2.1 3 .8 2.3 2.2 1.2 2.8.4 2.4.4 1.2.3.6.2.5.2.3.4.2.4 0 .4-.2.3-.3.3-.5.1-.4 0-.6-.1-1.4-.3-2.7-.3-3.5-.5-2.8-1.2-1.5-2.8-.8-3.4-.3-2.7.2-1.2.6-.4.7-.1z" class="fig fig-coat"></path><path d="M14-42.4l-1.6 38.2M10.9-6.9l3.2.2" class="fig-pole"></path></g></g></g></svg>